<svg width="18" height="22" viewBox="0 0 18 22" fill="none" xmlns="http://www.w3.org/2000/svg">
<path d="M17.726 0.72722C17.5431 0.455614 17.2968 0.256989 16.9877 0.13099C16.7908 0.0438502 16.5845 0.000203717 16.3688 0.000203717V0H1.63116C1.41558 0 1.20945 0.0436465 1.01253 0.130787C0.703208 0.256684 0.457033 0.455563 0.27425 0.727016C0.0915149 0.99847 0 1.29885 0 1.62852V20.3715C0 20.7013 0.0915149 21.0015 0.27425 21.2732C0.457033 21.5446 0.703208 21.7435 1.01253 21.8693C1.20925 21.9565 1.41558 22 1.63116 22C2.07194 22 2.46081 21.84 2.7984 21.5203L9.00005 15.3547L15.2017 21.5205C15.5299 21.8302 15.9189 21.9853 16.3688 21.9853C16.6032 21.9853 16.8095 21.9468 16.9877 21.8693C17.2968 21.7434 17.5431 21.5446 17.7259 21.2728C17.9087 21.0015 18 20.7011 18 20.3714V1.62872C18 1.29905 17.9085 0.998674 17.726 0.72722ZM16.2001 19.9205L10.2517 14.017L9.00005 12.7812L7.74854 14.017L1.80016 19.9205V1.86142H16.2001V19.9205Z" fill="#5AB3E4"/>
</svg>
