<svg width="22" height="20" viewBox="0 0 22 20" fill="none" xmlns="http://www.w3.org/2000/svg">
<path d="M11 0C5.17992 0 0 3.9142 0 9.23681C0 11.1808 0.699921 13.0216 2.0296 14.5881L0.886902 18.9391C0.717377 19.5843 1.33908 20.1651 1.98546 19.957L7.81511 18.0807C8.84502 18.3415 9.91504 18.4736 11 18.4736C16.8238 18.4736 22 14.5556 22 9.23681C22 3.87249 16.7682 0 11 0V0ZM11 16.7787C9.98151 16.7787 8.97963 16.6448 8.02257 16.381C7.85909 16.3359 7.68587 16.3396 7.5244 16.3914L2.9442 17.8657L3.8076 14.5785C3.88078 14.2997 3.80542 14.0033 3.60736 13.7916C2.37184 12.4706 1.71875 10.8955 1.71875 9.23681C1.71875 5.07814 5.88235 1.69475 11 1.69475C16.1176 1.69475 20.2812 5.07814 20.2812 9.23681C20.2812 13.3955 16.1176 16.7787 11 16.7787ZM12.0742 9.23665C12.0742 9.82176 11.5933 10.296 11 10.296C10.4067 10.296 9.92578 9.82176 9.92578 9.23665C9.92578 8.6517 10.4067 8.17732 11 8.17732C11.5933 8.17732 12.0742 8.6517 12.0742 9.23665ZM16.3711 9.23665C16.3711 9.82176 15.8902 10.296 15.2969 10.296C14.7035 10.296 14.2227 9.82176 14.2227 9.23665C14.2227 8.6517 14.7035 8.17732 15.2969 8.17732C15.8902 8.17732 16.3711 8.6517 16.3711 9.23665ZM7.77734 9.23665C7.77734 9.82176 7.29646 10.296 6.70312 10.296C6.10979 10.296 5.62891 9.82176 5.62891 9.23665C5.62891 8.6517 6.10979 8.17732 6.70312 8.17732C7.29646 8.17732 7.77734 8.6517 7.77734 9.23665Z" fill="#A9ADB7"/>
</svg>
