<svg width="22" height="20" viewBox="0 0 22 20" fill="none" xmlns="http://www.w3.org/2000/svg">
<path d="M21.6658 4.11971C21.3148 3.11969 20.6982 2.21759 19.8827 1.51091C19.0665 0.803575 18.0847 0.32134 17.0436 0.116382C16.6513 0.0391528 16.248 0 15.8449 0C14.6686 0 13.5245 0.332082 12.5365 0.960366C11.9417 1.3386 11.4192 1.81298 10.9888 2.36153C10.5585 1.81404 10.0363 1.34055 9.44217 0.963057C8.45461 0.335692 7.31136 0.00408121 6.13598 0.00408121C5.15661 0.00408121 4.17365 0.245591 3.29366 0.702442C2.41433 1.15896 1.65171 1.82316 1.0883 2.62326C0.511023 3.44303 0.15938 4.36097 0.0431243 5.35156C-0.058667 6.21909 0.019945 7.15037 0.276827 8.11953C0.785693 10.0394 1.91202 11.7905 2.7673 12.9215C4.62692 15.3805 7.18386 17.6126 10.5842 19.7453L10.9904 20L11.3966 19.7453C15.5792 17.122 18.4986 14.3524 20.3215 11.2782C21.3699 9.5102 21.9161 7.93511 21.9913 6.46298C22.0332 5.64254 21.9237 4.85415 21.6658 4.11971ZM13.2062 1.77934C10.1683 -0.173726 11.6062 5.71145 9.93407 3.50028C9.16127 2.47838 8.25 1.61247 6.13598 1.52896C5.92833 0.745519 1.48065 6.2057 1.56007 5.52901C1.1 6.11111 3.42035 5.05457 3.85 4.44444C4.27325 3.84341 4.28692 3.12201 4.95 2.77778C5.61333 2.43341 5.4008 1.52896 6.13598 1.52896C6.97786 1.61188 7.88013 1.77816 8.62219 2.24958C9.34551 2.7091 9.92701 3.35732 10.3038 4.12417L10.9901 5.52102L11.6753 4.12359C12.0517 3.35582 12.6332 2.70675 13.357 2.24656C14.0994 1.77444 14.9597 1.5249 15.8449 1.5249C16.1491 1.5249 17.8548 4.38634 18.15 4.44444C18.9303 4.59805 18.2661 2.12917 18.8816 2.66251C19.4968 3.19562 18.4366 5.36095 18.7 6.11111C18.892 6.65793 19.2818 5.48926 19.25 6.11111C19.1877 7.33052 19.6192 0.671962 18.7 2.22222C17.0624 4.98389 16.9601 -0.633268 13.2062 1.77934Z" fill="#E86F79"/>
</svg>
