<svg width="18" height="18" viewBox="0 0 18 18" fill="none" xmlns="http://www.w3.org/2000/svg">
<path d="M9.86903 0.565069L11.8992 4.86655C12.0404 5.16572 12.3133 5.37302 12.6291 5.42092L17.1689 6.11074C17.9642 6.23166 18.2815 7.25324 17.7062 7.83942L14.4212 11.1876C14.193 11.4204 14.0886 11.7561 14.1426 12.0847L14.918 16.8126C15.0539 17.6406 14.2226 18.2719 13.5115 17.8813L9.45113 15.6493C9.16877 15.4942 8.83123 15.4942 8.54887 15.6493L4.48853 17.8813C3.77739 18.2723 2.94609 17.6406 3.08201 16.8126L3.85736 12.0847C3.91143 11.7561 3.80705 11.4204 3.57876 11.1876L0.293765 7.83942C-0.281457 7.25285 0.0358164 6.23127 0.831064 6.11074L5.37088 5.42092C5.68666 5.37302 5.95962 5.16572 6.1008 4.86655L8.13097 0.565069C8.48617 -0.188356 9.51346 -0.188356 9.86903 0.565069Z" fill="#F2E27B"/>
</svg>
