<svg width="22" height="20" viewBox="0 0 22 20" fill="none" xmlns="http://www.w3.org/2000/svg">
<path d="M21.619 19.9884C21.8417 19.9218 22 19.6459 22 19.3303C22 8.40041 12.846 6.07417 10.7225 5.68139V0.667692C10.7225 0.42104 10.626 0.193091 10.4701 0.0785319C10.3151 -0.0383649 10.1295 -0.0219994 9.98523 0.110094L0.206169 9.44313C0.0775204 9.56587 0 9.77161 0 10.0007C0 10.2217 0.0775204 10.4274 0.206169 10.5537L9.98193 19.8855C10.1271 20.02 10.3135 20.034 10.4685 19.9194C10.6235 19.8025 10.7184 19.5722 10.7184 19.3279V13.9308C12.258 13.9472 13.5297 14.0454 14.5911 14.2254C19.676 15.0776 21.0343 19.4062 21.092 19.5909C21.1687 19.8399 21.3411 20.0001 21.5258 20.0001C21.5563 19.9989 21.5901 19.9966 21.619 19.9884Z" fill="#A9ADB7"/>
</svg>
